<?xml version="1.0" encoding="UTF-8"?>
<svg xmlns="http://www.w3.org/2000/svg" viewBox="0 0 292.45 292.45">
  <g id="Calque_6" data-name="Calque 6">
    <rect fill="#eef1f5" width="292.45" height="292.45"/>
  </g>
  <g id="Calque_1" data-name="Calque 1">
    <circle fill="#fff" cx="146.55" cy="135.71" r="82.32"/>
  </g>
  <g id="Calque_2" data-name="Calque 2">
    <circle fill="#dbe1ea" cx="146.83" cy="135.51" r="82.32"/>
  </g>
  <g id="Calque_3" data-name="Calque 3">
    <polygon fill="#94a1b2" points="107.46 187.96 150.34 109.21 169.21 113.26 112.58 188.76 107.46 187.96"/>
    <circle fill="#94a1b2" cx="166.11" cy="98.83" r="20.36"/>
  </g>
  <g id="Calque_5" data-name="Calque 5">
    <path fill="#dbe1ea" d="M149.37,112.98c2.96,3.3,7.01,5.41,11.39,6.03.66.09,1.58-.24,1.89-.87s-.29-1.07-.86-1.15c-3.74-.53-7.24-2.45-9.76-5.26-.48-.53-1.36-.46-1.96-.18-.45.21-1.19.89-.7,1.43h0Z"/>
    <path fill="#dbe1ea" d="M149.19,147.13c.72.1,1.45.08,2.15-.15s1.36-.55,1.87-1.07c.72-.75,1.1-1.79.83-2.82-.06-.25-.35-.38-.57-.43-.33-.08-.76-.05-1.08.05s-.71.24-.96.5c-.17.17-.35.4-.28.66.05.19.07.37.08.57v-.22c0,.33-.07.64-.2.94l.1-.22c-.09.2-.2.39-.35.56l.18-.22c-.1.12-.22.23-.35.33l.26-.2c-.1.08-.21.15-.33.21l.33-.17c-.1.05-.21.1-.32.14l.38-.13c-.11.04-.22.07-.33.09l.39-.08c-.1.02-.2.03-.3.03l.37-.02c-.13,0-.26,0-.39-.02l.33.04h-.04c-.38-.06-.71-.06-1.08.04-.32.09-.73.26-.96.5-.16.16-.37.41-.28.66s.33.4.57.43h0Z"/>
    <path fill="#eef1f5" d="M122.59,161.47c-.11-.24-.4-1.06-.55-1.55-.22-.73-.38-1.48-.52-2.23,0-.01-.07-.48-.03-.19-.02-.14-.03-.29-.05-.43-.03-.34-.06-.68-.06-1.02,0-.19,0-.39.01-.58,0-.02.07-.47.02-.2.03-.14.06-.28.1-.42.05-.17.26-.59.08-.24.08-.14.15-.27.24-.4-.03.04-.22.25-.02.05.04-.05.36-.4.18-.19-.15.17.06-.05.13-.07-.44.08-.04,0,.04,0-.11.02-.47,0,.06,0,.04,0,.4.06.15,0-.31-.07.39.13,0-.01.27.1.53.28.77.44.04.03.46.34.27.19-.17-.13.16.15.15.14.54.51,1.08,1.02,1.6,1.55,2.02,2.08,3.73,4.12,5.27,6.47.37.55.7,1.12,1.03,1.7.23.4.12.22.07.1.02.06.14.49.14.49-.03,0-.06-.32-.03-.31.04-.19.02-.16-.04.09l.09-.2s-.31.47.03.04c-.07.09-.15.16-.23.24-.25.27.29-.17-.02.03-.1.06-.19.12-.29.17.48-.27-.47.11-.2.07-.36.06-.78.04-1.14-.02.13.02.28.06-.19-.05-.19-.04-.38-.09-.56-.13-.41-.11-.81-.23-1.21-.37-.35-.12-.69-.25-1.04-.38-.07-.03-.48-.21-.79-.35-1.41-.67-2.75-1.5-3.99-2.45-1.05-.79-2.84-.2-3.42.9-.7,1.32-.22,2.57.9,3.42,1.43,1.09,2.97,2.01,4.62,2.73,1.9.83,3.88,1.58,5.97,1.71,1.96.12,4.01-.61,5.27-2.16,1.5-1.86,1.48-4.03.38-6.1-.93-1.75-2.16-3.35-3.37-4.91s-2.4-2.92-3.72-4.27-2.78-2.78-4.63-3.45c-1.99-.72-4.23-.17-5.71,1.32-3.45,3.47-1.79,9.45-.08,13.36.54,1.24,2.35,1.52,3.42.9,1.28-.75,1.44-2.18.9-3.42h0Z"/>
    <path fill="#eef1f5" d="M125,150.06c-.01-1.32.2-2.73,1.15-3.73.72-.76,1.78-1.15,2.71-.76,1.2.5,2.17,1.75,3.05,2.65,1.24,1.27,2.42,2.58,3.56,3.94,2.15,2.56,4.24,5.32,5.88,8.25.55.98.65,1.49-.19,1.98-1.2.7-3.01.21-4.35-.09s-2.71.4-3.08,1.75c-.34,1.25.42,2.78,1.75,3.08,3.72.83,8.08,1.09,10.45-2.53s-.65-7.53-2.7-10.46-4.52-6-7.1-8.73-5.44-5.65-9.54-4.81c-4.39.9-6.63,5.3-6.58,9.47.03,3.22,5.03,3.22,5,0h0Z"/>
    <path fill="#eef1f5" d="M132.52,140.36c-.16-.94-.23-2.88,1-3.23s3.1,1.46,3.95,2.12c2.94,2.27,5.49,5.02,7.93,7.8s4.8,5.47,6.4,8.73c.34.7.66,1.43.86,2.19.21.84.05.76-.69,1.28s-1.44.94-2.2,1.33c.05-.03-.85.44-.78.36-.36.41-.43-.26.14.31-2.28-2.27-5.82,1.26-3.54,3.54,1.63,1.62,3.83,1.42,5.78.55,1.78-.79,3.74-1.91,5.07-3.36,3.18-3.46-.14-8.93-2.32-12.06-2.44-3.49-5.34-6.75-8.3-9.8-1.42-1.46-2.9-2.86-4.49-4.14-1.72-1.38-3.52-2.83-5.63-3.55-2.33-.79-4.94-.07-6.51,1.82-1.78,2.15-1.95,4.78-1.51,7.43.22,1.33,1.87,2.08,3.08,1.75,1.41-.39,1.97-1.74,1.75-3.08h0Z"/>
    <path fill="#eef1f5" d="M139.57,134.44c1.03-.93,2.06-1.84,3.49-1.25,1.8.74,3.48,2.01,5.14,3.03,3.53,2.16,7.02,4.36,10.48,6.62s6.89,4.57,10.28,6.93c.73.51,2.03,1.19,1.65,2.1-.53,1.27-2.15,1.4-3.33,1.37-4.1-.12-8.39-1.74-11.98-3.63-2.85-1.5-5.38,2.82-2.52,4.32,4.35,2.29,9.34,4.08,14.3,4.31,2.33.11,4.79-.47,6.52-2.11s2.55-3.99,1.89-6.22c-.7-2.36-2.88-3.68-4.78-4.99-2.09-1.45-4.2-2.88-6.31-4.29-4.37-2.91-8.79-5.73-13.26-8.47-2.26-1.39-4.7-3.3-7.3-3.96-3.06-.78-5.6.73-7.79,2.72-2.39,2.16,1.15,5.69,3.54,3.54h0Z"/>
    <path fill="#eef1f5" d="M127.28,137.58c-17.3.18-34.6.36-51.91.55-4.89.05-9.74.19-14.58.92-1.34.2-2.07,1.88-1.75,3.08.39,1.43,1.74,1.95,3.08,1.75,4.06-.61,8.18-.68,12.27-.73,4.3-.05,8.6-.09,12.9-.14l25.33-.27,14.65-.15c3.22-.03,3.22-5.03,0-5h0Z"/>
    <path fill="#eef1f5" d="M115.89,154.56c-16.19,5.78-31.94,12.76-47.09,20.89-2.84,1.52-.31,5.84,2.52,4.32,14.77-7.92,30.11-14.74,45.9-20.38,1.27-.45,2.12-1.7,1.75-3.08-.34-1.23-1.8-2.2-3.08-1.75h0Z"/>
    <path fill="#eef1f5" d="M137.37,131.2l-.58-3.03-.27-1.42c-.05-.28-.03-.7-.2-.3.35-.84,1.19-1.66,1.72-2.39.62-.85,1.23-1.69,1.85-2.54,1.2-1.64,2.4-3.29,3.59-4.93.18-.25.36-.5.54-.75.02-.02.35-.43.17-.22.04-.05.4-.35.39-.4,0,.05-.19.1-.22.1-.62-.06-.88-.15-1.39-.55-.16-.13,0-.46-.1-.11-.13.44-.05,1.12-.02,1.57.09,1.35,1.08,2.5,2.5,2.5,1.28,0,2.59-1.15,2.5-2.5-.1-1.48.17-2.84-.69-4.19-.9-1.42-2.66-1.99-4.24-1.49-1.44.46-2.35,1.61-3.21,2.77s-1.74,2.39-2.61,3.59c-1.64,2.25-3.44,4.46-4.95,6.8-.94,1.46-.73,2.93-.42,4.55l.82,4.27c.25,1.33,1.85,2.08,3.08,1.75,1.39-.38,2-1.74,1.75-3.08h0Z"/>
    <path fill="#eef1f5" d="M142.9,116.84c-3.14,4.81-6.08,9.75-8.79,14.82-.62,1.15-.33,2.77.9,3.42s2.76.33,3.42-.9c2.72-5.06,5.65-10.01,8.79-14.82.72-1.1.26-2.81-.9-3.42-1.25-.66-2.66-.27-3.42.9h0Z"/>
    <path fill="#eef1f5" d="M138.16,120.5l-3.07,3.98,4.18,2.43s.05-.37.09-.38c0,0-.24.42,0,.07.17-.25.34-.51.52-.75.03-.04.3-.4.13-.18s.11-.13.14-.17c.2-.25.41-.5.62-.75.79-.93,1.63-1.82,2.45-2.73,1.77-1.95,3.34-3.98,4.67-6.25h-4.32c.07.1.14.21.2.31.23.36-.07-.08-.04-.09.01,0,.08.35.09.36-.08-.02-.02-.53-.03-.11,0,.03-.01.38-.01.38.05-.32.06-.38.03-.19-.01.06-.02.13-.04.19-.03.12-.06.25-.1.37-.02.07-.18.45-.04.15s-.07.11-.1.17c-.07.13-.14.25-.22.38s-.16.25-.24.37c-.03.04-.29.41-.13.19s-.11.14-.14.18c-.09.11-.19.23-.28.34-.21.26-.42.51-.63.77-1.71,2.15-2.96,4.5-3.91,7.08-.45,1.23.51,2.79,1.75,3.08,1.41.32,2.59-.43,3.08-1.75.11-.31.24-.62.36-.93.15-.38-.24.53.05-.11.06-.13.12-.27.18-.4.28-.6.59-1.19.92-1.76s.7-1.12,1.09-1.66c.13-.17.17-.21.01-.02.12-.14.23-.29.35-.43.21-.26.42-.51.63-.77.94-1.18,1.85-2.42,2.2-3.92s.25-3.35-.7-4.7c-1.06-1.5-3.3-1.72-4.32,0-.32.55-.63,1.1-.98,1.64-.18.27-.36.54-.55.8-.08.12-.17.23-.25.35-.41.55.18-.22-.07.09-.81.97-1.63,1.91-2.48,2.84s-1.66,1.8-2.43,2.75c-.92,1.11-2.1,2.39-2.36,3.86-.19,1.06.12,2.28,1.15,2.82.9.47,2.34.5,3.03-.39l3.07-3.98c.42-.55.73-1.04.73-1.77,0-.61-.27-1.35-.73-1.77-.89-.82-2.68-1.11-3.54,0h0Z"/>
    <path fill="#eef1f5" d="M137.05,136.32c2.93,1.06,5.85,2.12,8.57,3.66s5.23,3.78,8.17,5.19c5.19,2.5,11.6,3.48,15.38,8.2l1.77-4.27c-6.09.7-12.17-.72-17.22-4.23-4.49-3.13-7.76-7.9-9.28-13.12l-3.67,2.82c7.19,5.37,12.81,12.8,21.15,16.56l.6-4.57c-1.57.23-3.13-.04-4.61-.54-3.06-1.03-4.37,3.8-1.33,4.82,2.39.81,4.8.9,7.27.54,2.07-.3,2.48-3.72.6-4.57-8.28-3.74-13.99-11.22-21.15-16.56-1.8-1.34-4.24.87-3.67,2.82,3.94,13.5,17.26,22.64,31.32,21.03,2.24-.26,3.18-2.5,1.77-4.27-4.13-5.16-10.74-6.27-16.39-8.98-3-1.44-5.46-3.69-8.36-5.3s-6.32-2.88-9.57-4.06c-1.27-.46-2.74.52-3.08,1.75-.38,1.39.47,2.61,1.75,3.08h0Z"/>
    <path fill="#eef1f5" d="M138,136.47c-2.04-1.71-5.16-1.38-6.57,1.01-1.49,2.51-.21,5.48,1.73,7.29,1.7,1.59,3.53,3,5.17,4.67s3.05,3.34,4.32,5.21,2.16,4.09,3.33,6.1c1.33,2.29,4.2,3.66,6.62,2.11,2.78-1.78,1.54-5.2.32-7.49-1.15-2.18-2.62-4.2-4.03-6.22-3.05-4.37-6.45-8.59-11.13-11.3-2.79-1.62-5.31,2.7-2.52,4.32s5.12,3.97,7.14,6.52c2.15,2.71,4.23,5.66,5.93,8.67.36.64.58,1.42.97,2.03.62.99.07.29.04.28s.98-1.17.95-1.12c.04-.09.24.08.23,0-.01-.2-.42-.73-.53-.94-.18-.38-.35-.77-.53-1.15-.37-.78-.77-1.54-1.21-2.29-1.8-3.12-4.1-5.97-6.64-8.52-1.35-1.36-2.78-2.6-4.25-3.83-.35-.3-.71-.6-1.03-.93,0,0-.55-.78-.52-.77,0,0-.12-.05-.09-.05-.01,0-.08.15-.11.15-.5-.05-.61.25-1.14-.2,1.03.87,2.52,1.01,3.54,0,.89-.89,1.04-2.66,0-3.54h0Z"/>
    <path fill="#eef1f5" d="M128.49,142.5c-2.54.82-4.54,3.13-4.51,5.88.02,1.62.95,2.97,2.29,3.81.85.53,1.81.88,2.68,1.37,1.85,1.06,3.06,2.02,4.57,3.63.8.86,1.14,1.28,1.71,2.14.32.47.61.95.89,1.44.13.23.25.46.37.69.06.12.12.23.18.35-.07-.22-.07-.19,0,.09v-1.33l-.06.21.64-1.1-.15.14,1.1-.64c-.26.08-.27.09-.02.04-.18.02-.36.03-.55.04-.18,0-.36,0-.55,0-.32-.02-.36-.02-.13-.02-.46-.11-.2-.04-.04.03-.2-.22-.24-.25-.11-.09-.1-.15-.19-.29-.28-.45-.7-1.21-1.12-2.29-1.56-3.62s-.79-2.8-1.03-4.24c-.07-.43-.14-1.11-.18-1.73-.03-.4-.04-.8-.05-1.2,0-.2,0-.4,0-.6,0,.21-.05.41-.14.6l-.9.9.12-.08-1.26.34.15-.02-1.26-.34c-.22-.23-.25-.26-.08-.09.11.1.21.21.32.31.18.17.35.35.52.53.38.39.75.79,1.12,1.19.7.77,1.37,1.56,2.01,2.38.46.6,1.11,1.51,1.62,2.26.28.41.54.83.81,1.25.14.23.29.45.41.69l-.08-.2c.16.72.32.27.46-1.34-.95.96-.96,2.58,0,3.54s2.59.97,3.54,0c2.19-2.23.23-4.94-1.16-6.95s-2.85-3.85-4.47-5.6c-.74-.8-1.52-1.76-2.49-2.29-1.77-.96-3.7.26-4.14,2.08-.27,1.12-.08,2.42.03,3.55.13,1.32.33,2.64.62,3.93.54,2.36,1.39,4.67,2.5,6.81.55,1.07,1.29,2.09,2.34,2.72,1.17.69,2.56.82,3.89.71,1.71-.15,3.4-1,3.4-2.98,0-1.24-.83-2.5-1.46-3.54-1.09-1.8-2.44-3.49-3.97-4.95-1.72-1.63-3.69-3.06-5.81-4.1-.43-.21-.88-.46-1.33-.64l-.2-.12c.18.17.17.16-.04-.04.01.02.36.5.19.54,0,0,.11-.4.13-.45-.21.55.45-.54.08-.11.03-.04.59-.52.2-.24.13-.09.26-.17.4-.24-.24.09-.22.09.06,0,1.28-.41,2.11-1.73,1.75-3.08-.35-1.26-1.78-2.16-3.08-1.75h0Z"/>
    <path fill="#eef1f5" d="M125.61,150.94c-1.03-.53-2.11-.99-3.29-.96-1.34.04-2.59.69-3.34,1.82-1.14,1.72-.57,4.23.04,6.06,1.15,3.46,3.45,6.41,6.54,8.34.68.43,1.85.51,2.52,0,1.09-.84,1.66-1.85,1.67-3.25,0-.99-.17-2.02-.37-2.99-.38-1.85-1.12-3.66-2.09-5.28-1.15-1.92-3.89-1.41-4.57.6-.46,1.35.17,2.6.75,3.79.46.96.95,1.91,1.45,2.84.98,1.84,2.04,3.63,3.16,5.39.58.9,1.75,1.5,2.82,1.15.95-.31,1.98-1.31,1.84-2.41-.22-1.66-.85-2.81-2.21-3.81-1.06-.78-2.83-.21-3.42.9-.69,1.3-.23,2.59.9,3.42-.55-.4.21.35-.22-.18l.09.18c-.11-.15-.15-.32-.13-.5l4.66-1.26c-.99-1.54-1.92-3.11-2.8-4.72-.43-.78-.84-1.57-1.25-2.37-.19-.38-.38-.76-.56-1.14-.03-.07-.27-.67-.33-.69.16.05.12.66.09.75l-4.57.6c.77,1.28.98,1.75,1.36,3.15.08.31.16.62.22.94.02.09.17,1.04.1.52.04.32.07.64.08.96,0,.12,0,.24,0,.36,0-.53.28-.94.81-1.25h2.52c-.26-.16-.51-.35-.76-.51-.3-.19.3.25.02.02-.1-.09-.21-.17-.31-.26-.44-.38-.85-.78-1.24-1.22-.11-.13-.22-.26-.33-.39-.24-.27.22.32.01.02-.16-.22-.32-.44-.47-.67-.33-.51-.63-1.05-.89-1.61-.02-.05-.19-.46-.08-.17s-.04-.12-.06-.18c-.11-.29-.2-.58-.29-.87-.08-.26-.14-.53-.2-.79-.03-.13-.06-.27-.08-.4,0-.01-.09-.64-.05-.27.04.34,0-.13,0-.19,0-.07,0-.14,0-.22,0-.15,0-.14-.02.01-.23.31-.28.65-.73.78-.19.05-.39,0-.08.02-.22-.02-.33-.06-.04.01.62.16-.21-.14.12.02.16.08.33.16.49.24,1.16.59,2.77.34,3.42-.9.6-1.14.35-2.79-.9-3.42h0Z"/>
    <path fill="#eef1f5" d="M77.48,170.17c-1.85-1.34-2.98-3.49-3.98-5.48-1.2-2.38-2.28-4.83-3.29-7.29s-2.14-5.03-2.94-7.62c-.19-.6-.38-1.24-.45-1.87,0-.05-.05-.91-.02-.91l-.34.45c-.48.44-.48.56,0,.36.48.03,1.05-.15,1.55-.19.78-.06,1.56-.09,2.35-.11,11.72-.29,23.46-.34,35.18-.51,6.62-.09,13.24-.19,19.87-.28l-1.26-4.66c-18.41,8.15-37.21,15.38-56.33,21.69-3.1,1.02-1.81,5.37,1.33,4.82,16.99-2.95,33.47-8.57,48.77-16.51l-2.52-4.32c-13.19,7.19-27.4,12.47-40.03,20.69l3.03,3.93c3.62-2.98,7.48-5.65,11.52-8.03,2.35-1.39.8-5.6-1.93-4.57-5.91,2.24-11.75,4.63-17.54,7.15l2.52,4.32c18.84-8.58,38.01-16.4,57.46-23.46l-1.93-4.57c-5.67,3.56-11.83,6.19-18.03,8.69-6.67,2.69-13.36,5.32-20.04,7.96-1.26.49-2.13,1.67-1.75,3.08.34,1.25,1.79,2.17,3.08,1.75,5.47-1.81,10.94-3.62,16.41-5.43,2.66-.88,5.31-1.76,7.97-2.64,2.44-.81,5.16-1.81,5.5-4.75.31-2.65-1.69-4.99-4.17-5.66s-5.44.27-7.92.92c-5.3,1.38-10.49,3.14-15.65,4.96-5.76,2.03-11.5,4.11-17.36,5.85l3.08,3.08c.22-1.17,2.29-1.74,3.24-2.15,1.67-.72,3.4-1.3,5.12-1.88,3.91-1.31,7.84-2.56,11.79-3.74,7.83-2.35,15.73-4.46,23.69-6.31l-1.33-4.82c-19.93,6.33-39.87,12.67-59.52,19.81l2.43,4.18c1.47-1.88,3.51-2.94,5.65-3.91,2.68-1.21,5.43-2.29,8.18-3.33,5.63-2.12,11.35-3.99,17.06-5.86,3.06-1,1.82-5.53-1.33-4.82-10.93,2.44-22,4.11-33.16,4.98l2.5,2.5c0,.26-.46.34-.12.28.09-.02.36-.23.45-.28.51-.28,1.1-.43,1.65-.63,1.55-.54,3.1-1.04,4.68-1.49,3.07-.89,6.18-1.63,9.32-2.22,6.22-1.16,12.55-1.62,18.87-1.5l-.66-4.91c-7.72,2.03-15.66,2.81-23.6,3.39-4.1.3-8.21.55-12.32.75-2.06.1-4.11.2-6.17.28-.99.04-1.98.08-2.96.11-.6.02-1.77.25-2.34-.03l.51,3.93c2.86-2.87,6.96-3.68,10.87-3.88,4.72-.25,9.49-.13,14.22-.16,9.6-.06,19.2-.13,28.8-.19v-5c-15.66.13-31.33-.13-46.98-.76l.66,4.91c3.93-.74,8.09-.4,12.07-.39,4.24,0,8.48.01,12.73.02,8.48.01,16.97.02,25.45.04,4.82,0,9.65.01,14.47.02,3.22,0,3.22-5,0-5-17.22-.02-34.43-.05-51.65-.07-4.78,0-9.68-.32-14.4.57-2.87.54-2.04,4.8.66,4.91,15.65.63,31.32.89,46.98.76,3.22-.03,3.22-5.02,0-5-10.1.07-20.19.13-30.29.2-4.85.03-9.79-.2-14.62.29s-9.15,1.84-12.51,5.21c-1.06,1.07-.97,3.22.51,3.93,2.03.98,4.15.74,6.34.66s4.28-.17,6.42-.27c4.36-.21,8.72-.47,13.07-.78,8.54-.61,17.11-1.42,25.41-3.6,2.76-.73,2.14-4.86-.66-4.91-7.39-.14-14.8.55-22.04,2.04-3.51.72-6.98,1.64-10.39,2.75-2.96.97-7.55,2.09-7.42,6.04.04,1.27,1.11,2.61,2.5,2.5,11.6-.9,23.13-2.62,34.49-5.16l-1.33-4.82c-6.02,1.97-12.04,3.94-17.96,6.2-2.91,1.11-5.81,2.28-8.65,3.57-2.43,1.1-4.82,2.48-6.49,4.61-.7.89-1,1.99-.39,3.03.53.9,1.79,1.52,2.82,1.15,19.66-7.14,39.59-13.48,59.52-19.81,3.07-.97,1.81-5.55-1.33-4.82-8.59,1.99-17.11,4.29-25.55,6.87-4.14,1.27-8.29,2.56-12.37,4.02-3.27,1.17-8.66,2.67-9.42,6.67-.34,1.8,1.12,3.65,3.08,3.08,9.01-2.68,17.74-6.19,26.7-8.99,2.24-.7,4.49-1.35,6.76-1.93,1.44-.37,3.86-1.41,5.25-.59.56.34-.04.42.15.13.35-.55.07-.28-.22-.18-1.03.34-2.07.73-3.1,1.07-2.34.78-4.69,1.55-7.03,2.33-5.31,1.76-10.63,3.52-15.94,5.28l1.33,4.82c6.83-2.69,13.67-5.38,20.48-8.13,6.45-2.6,12.89-5.31,18.79-9.02,2.29-1.44.85-5.58-1.93-4.57-15.44,5.6-30.71,11.69-45.77,18.23-4.31,1.87-8.61,3.79-12.88,5.73-1.23.56-1.53,2.34-.9,3.42.75,1.28,2.18,1.44,3.42.9,5.39-2.35,10.84-4.56,16.35-6.65l-1.93-4.57c-4.41,2.6-8.58,5.56-12.53,8.81-2.19,1.8.66,5.47,3.03,3.93,12.63-8.22,26.84-13.5,40.03-20.69,2.83-1.54.33-5.8-2.52-4.32-14.93,7.75-31,13.13-47.58,16.01l1.33,4.82c19.53-6.44,38.72-13.86,57.52-22.19,2.34-1.04,1.07-4.69-1.26-4.66-13.08.19-26.16.37-39.23.56-3.23.05-6.46.09-9.68.14s-6.3-.06-9.41.29c-1.53.17-3.13.36-4.24,1.56-1.17,1.28-1.12,3.03-.88,4.63.44,2.94,1.81,5.77,2.92,8.51,1.31,3.25,2.67,6.48,4.23,9.62,1.45,2.91,3.2,5.53,5.87,7.45,1.1.79,2.79.19,3.42-.9.74-1.26.2-2.63-.9-3.42h0Z"/>
    <path fill="#dbe1ea" d="M118.16,158.45c-.14-1.89-.14-3.8.05-5.68.04-.34.09-.68.22-1,.06-.14.13-.3.23-.41s.3-.18.09-.11c-.14.05-.23.13-.06.03-.12.07-.11.02.04,0,.26-.05.25-.05.48-.07.4-.04.81-.03,1.22,0,.68.07,1.4-.09,2.02-.38.19-.09,1.03-.64.37-.71-1.43-.15-2.83-.04-4.23.3-1.13.27-2.57.75-3.03,1.94-.38.98-.34,2.19-.37,3.22-.04,1.22-.01,2.44.08,3.66.01.17.43.18.5.18.34.01.73-.06,1.06-.15.3-.09,1.37-.34,1.34-.8h0Z"/>
    <path fill="#dbe1ea" d="M123.45,149.96c-.32-.77-.53-1.57-.61-2.4-.04-.37-.05-.73-.01-1.1s.12-.68.25-.93c.03-.06.07-.12.11-.18,0,0,.17-.23.09-.14s.12-.13.12-.12c.05-.05.1-.1.15-.15.23-.22-.13.08.03-.03.07-.05.14-.1.22-.15.01,0,.18-.11.18-.11-.15.08-.19.1-.09.05.03-.02.06-.03.09-.05.09-.04.19-.08.29-.13.26-.12-.12.03.05-.02.19-.06.37-.11.56-.16.21-.05.42-.1.64-.14.15-.03.13-.02,0,0,.13-.02.26-.05.38-.07.57-.1,1.51-.36,1.63-1.05.11-.66-.83-.82-1.28-.74-2.12.37-4.39.89-5.71,2.75-.57.8-.66,1.76-.61,2.71.04,1.01.27,1.99.65,2.92.25.61,1.13.59,1.67.44.4-.12,1.48-.6,1.23-1.21h0Z"/>
    <path fill="#dbe1ea" d="M127.72,142.67c-.08-.81-.15-1.62-.07-2.43v.15c.03-.41.1-.82.24-1.22.07-.19.15-.37.25-.54.02-.04.15-.24.08-.13.07-.1.15-.19.22-.28.12-.13.19-.3.04-.44-.17-.15-.56-.15-.75-.13-.38.03-.77.1-1.13.25-.28.11-.6.24-.8.47-1.24,1.4-1.15,3.33-.97,5.08.02.19.41.25.52.26.34.03.74-.03,1.07-.12s.7-.21.98-.43c.16-.12.35-.26.33-.48h0Z"/>
    <path fill="#dbe1ea" d="M123.11,152.13c1.15.73,2.04,1.76,2.93,2.78,1.03,1.18,2.03,2.39,3,3.62.9,1.15,1.79,2.32,2.63,3.52.78,1.11,1.47,2.28,1.67,3.65.07.52,3-.08,2.9-.78-.19-1.37-.89-2.54-1.67-3.65-.89-1.27-1.83-2.5-2.79-3.72s-1.87-2.3-2.84-3.42-1.88-2.19-3.1-2.97c-.47-.3-1.39.02-1.86.19-.15.05-1.28.52-.88.78h0Z"/>
    <path fill="#dbe1ea" d="M127.92,144.13c2.94,3.05,6.22,5.63,9.39,8.41,1.54,1.35,2.87,2.83,3.86,4.63s1.68,3.69,2.37,5.59c.27.74,3.13-.14,2.9-.78-.69-1.9-1.39-3.81-2.37-5.59s-2.28-3.3-3.79-4.65-3.21-2.63-4.78-3.99c-1.69-1.47-3.31-3.02-4.86-4.63-.54-.56-3.23.49-2.72,1.01h0Z"/>
    <path fill="#dbe1ea" d="M134.58,134.18c4.22,2.68,8.19,5.72,11.87,9.1,3.45,3.18,7.19,6.67,8.72,11.24.34,1.03,3.23.21,2.9-.78-1.57-4.71-5.36-8.32-8.93-11.6-3.79-3.49-7.91-6.62-12.26-9.38-.81-.51-3.48.67-2.3,1.41h0Z"/>
    <path fill="#dbe1ea" d="M137.18,131.38c.04-.14.05-.14.11-.23.05-.06.1-.08.02-.02.05-.04.11-.09.16-.13.12-.09.24-.17.36-.26.09-.06.11-.07,0,0,.06-.04.12-.07.18-.11.12-.07.25-.13.37-.19.2-.1-.02.04-.05.02.02.01.16-.07.19-.08.12-.05.27-.08.38-.14-.07.04-.29.09-.09.03.08-.02.16-.05.24-.07.13-.04.26-.06.39-.1.2-.05-.3.05-.09.02.07-.01.13-.03.2-.04.27-.05.54-.09.82-.12.07,0,.14-.01.21-.02.2-.02-.25.02-.04,0,.14-.01.29-.02.43-.03.32-.02.63-.04.95-.06.63-.04,1.5-.21,1.93-.74s-.36-.67-.73-.65c-1.56.09-3.15.2-4.65.66-.81.25-1.61.56-2.35,1-.64.38-1.61.9-1.81,1.68-.21.82,2.66.4,2.88-.44h0Z"/>
    <path fill="#dbe1ea" d="M152.57,149.19c5.25,2.01,10.43,4.18,15.55,6.5,1.15.52,3.35-1.13,1.69-1.88-5.11-2.33-10.3-4.5-15.55-6.5-.65-.25-1.6.03-2.05.55s-.27,1.09.36,1.33h0Z"/>
  </g>
</svg>